HIERARCHY
ROOT Hips
{
	OFFSET 0.00000 0.00000 0.00000
	CHANNELS 6 Xposition Yposition Zposition Zrotation Yrotation Xrotation 
	JOINT LHipJoint
	{
		OFFSET 0 0 0
		CHANNELS 3 Zrotation Yrotation Xrotation
		JOINT LeftUpLeg
		{
			OFFSET 1.53139 -1.83434 0.76626
			CHANNELS 3 Zrotation Yrotation Xrotation
			JOINT LeftLeg
			{
				OFFSET 2.56112 -7.03663 0.00000
				CHANNELS 3 Zrotation Yrotation Xrotation
				JOINT LeftFoot
				{
					OFFSET 2.59983 -7.14299 0.00000
					CHANNELS 3 Zrotation Yrotation Xrotation
					JOINT LeftToeBase
					{
						OFFSET 0.13742 -0.37757 2.00054
						CHANNELS 3 Zrotation Yrotation Xrotation
						End Site
						{
							OFFSET 0.00000 -0.00000 1.02897
						}
					}
				}
			}
		}
	}
	JOINT RHipJoint
	{
		OFFSET 0 0 0
		CHANNELS 3 Zrotation Yrotation Xrotation
		JOINT RightUpLeg
		{
			OFFSET -1.40122 -1.83435 0.76627
			CHANNELS 3 Zrotation Yrotation Xrotation
			JOINT RightLeg
			{
				OFFSET -2.54052 -6.98003 0.00000
				CHANNELS 3 Zrotation Yrotation Xrotation
				JOINT RightFoot
				{
					OFFSET -2.63179 -7.23079 0.00000
					CHANNELS 3 Zrotation Yrotation Xrotation
					JOINT RightToeBase
					{
						OFFSET -0.24131 -0.66299 2.03908
						CHANNELS 3 Zrotation Yrotation Xrotation
						End Site
						{
							OFFSET -0.00000 -0.00000 1.07391
						}
					}
				}
			}
		}
	}
	JOINT LowerBack
	{
		OFFSET 0 0 0
		CHANNELS 3 Zrotation Yrotation Xrotation
		JOINT Spine
		{
			OFFSET 0.01174 2.10302 -0.29778
			CHANNELS 3 Zrotation Yrotation Xrotation
			JOINT Spine1
			{
				OFFSET 0.00772 2.13227 -0.01247
				CHANNELS 3 Zrotation Yrotation Xrotation
				JOINT Neck
				{
					OFFSET 0 0 0
					CHANNELS 3 Zrotation Yrotation Xrotation
					JOINT Neck1
					{
						OFFSET -0.09219 1.60848 0.31481
						CHANNELS 3 Zrotation Yrotation Xrotation
						JOINT Head
						{
							OFFSET 0.13974 1.65456 -0.31134
							CHANNELS 3 Zrotation Yrotation Xrotation
							End Site
							{
								OFFSET 0.04742 1.69515 -0.14578
							}
						}
					}
				}
				JOINT LeftShoulder
				{
					OFFSET 0 0 0
					CHANNELS 3 Zrotation Yrotation Xrotation
					JOINT LeftArm
					{
						OFFSET 3.24909 1.02882 -0.23993
						CHANNELS 3 Zrotation Yrotation Xrotation
						JOINT LeftForeArm
						{
							OFFSET 5.32955 -0.00000 -0.00000
							CHANNELS 3 Zrotation Yrotation Xrotation
							JOINT LeftHand
							{
								OFFSET 3.69232 -0.00000 -0.00000
								CHANNELS 3 Zrotation Yrotation Xrotation
								JOINT LeftFingerBase
								{
									OFFSET 0 0 0
									CHANNELS 3 Zrotation Yrotation Xrotation
									JOINT LeftHandIndex1
									{
										OFFSET 0.53660 -0.00000 -0.00000
										CHANNELS 3 Zrotation Yrotation Xrotation
										End Site
										{
											OFFSET 0.43262 -0.00000 -0.00000
										}
									}
								}
								JOINT LThumb
								{
									OFFSET 0 0 0
									CHANNELS 3 Zrotation Yrotation Xrotation
									End Site
									{
										OFFSET 0.43922 -0.00000 0.43922
									}
								}
							}
						}
					}
				}
				JOINT RightShoulder
				{
					OFFSET 0 0 0
					CHANNELS 3 Zrotation Yrotation Xrotation
					JOINT RightArm
					{
						OFFSET -3.21387 0.93002 -0.34594
						CHANNELS 3 Zrotation Yrotation Xrotation
						JOINT RightForeArm
						{
							OFFSET -5.23431 -0.00000 0.00000
							CHANNELS 3 Zrotation Yrotation Xrotation
							JOINT RightHand
							{
								OFFSET -3.55301 -0.00000 -0.00000
								CHANNELS 3 Zrotation Yrotation Xrotation
								JOINT RightFingerBase
								{
									OFFSET 0 0 0
									CHANNELS 3 Zrotation Yrotation Xrotation
									JOINT RightHandIndex1
									{
										OFFSET -0.77252 -0.00000 -0.00000
										CHANNELS 3 Zrotation Yrotation Xrotation
										End Site
										{
											OFFSET -0.62283 -0.00000 -0.00000
										}
									}
								}
								JOINT RThumb
								{
									OFFSET 0 0 0
									CHANNELS 3 Zrotation Yrotation Xrotation
									End Site
									{
										OFFSET -0.63234 -0.00000 0.63234
									}
								}
							}
						}
					}
				}
			}
		}
	}
}
MOTION
Frames: 15
Frame Time: 0.133333
0.00 0.00 0.00 0 0 0 0 0 0 -21 0 0 0 0 0 0 0 0 0 0 0 0 0 0 21 0 0 0 0 0 0 0 0 0 0 0 0 0 0 0 0 0 0 0 0 0 0 -16 0 0 21 0 0 11 0 0 0 -8 0 0 0 0 0 0 0 0 0 0 0 0 0 0 0 0 0 0 0 0 8 0 0 0 0 0 0 0 0 0 0 0 0 0 0 0 0 0
0.00 0.00 0.00 -0.0893 2.0534 0.6723 0.0000 0.0000 0.0000 -19.7314 -7.2750 -17.6358 0.8410 5.8497 16.3488 -0.3470 -10.5354 1.9202 0.4653 -4.3751 -12.1345 0.0000 0.0000 0.0000 23.4261 -3.9282 12.2282 -2.0814 -9.0336 25.9004 -0.0069 0.0021 -1.5706 -0.0319 1.1535 -3.1712 1.7390 2.3748 9.8726 -0.5988 3.3095 1.8410 -2.0142 1.6220 -3.4774 -12.8031 -7.9064 -19.3953 10.8789 -10.1326 23.2578 4.5244 -4.3847 12.1325 0.0000 -0.0000 0.0000 -88.1051 9.1231 15.7549 15.5885 -24.9595 -3.4705 -0.0000 -0.0000 8.0469 19.0281 22.7814 7.6064 -7.1250 0.0000 -0.0000 -10.4621 53.6303 -2.2393 0.0000 -0.0000 0.0000 91.5216 1.9180 24.8900 -16.0156 25.5417 -3.6527 0.0000 0.0000 3.6237 -16.3219 8.9168 -2.5988 7.1250 -0.0000 -0.0000 7.6080 -20.7312 4.4612
0.00 0.00 0.00 1.9464 3.5215 -0.2360 0.0000 0.0000 0.0000 -23.5387 -3.4266 -12.3687 0.5409 4.7121 13.0893 -0.5901 -13.5054 3.8299 0.0563 -1.5313 -4.2121 0.0000 0.0000 0.0000 20.2246 -3.7101 4.5767 -5.1904 -13.5950 41.6389 -0.5503 -3.1340 13.2929 -0.0434 -1.3453 3.6993 -0.6300 2.0613 9.4623 -0.9215 2.6458 2.2778 -0.9111 1.3184 -2.9192 -12.9242 -7.8343 -19.2118 11.1301 -10.0908 23.2975 4.6554 -4.3533 12.1293 0.0000 -0.0000 0.0000 -87.3141 8.5275 20.0959 17.3718 -27.3454 -4.2567 -0.0000 -0.0000 6.9267 19.9030 24.6523 8.5877 -7.1250 0.0000 -0.0000 -10.3692 55.6957 -2.7428 0.0000 -0.0000 0.0000 90.8429 0.8645 23.6894 -15.3892 24.6855 -3.3868 0.0000 0.0000 7.1522 -16.7767 9.8301 -2.9464 7.1250 -0.0000 -0.0000 7.2695 -19.7634 4.4186
0.00 0.00 0.00 4.3691 4.4142 -1.3231 0.0000 0.0000 0.0000 -27.3725 -1.0973 -4.8870 0.1586 2.5659 7.0723 -0.6296 -13.9038 4.5368 0.0589 -1.5659 -4.3075 0.0000 0.0000 0.0000 16.7026 -1.6365 -3.6154 -9.4203 -17.0707 57.5328 -0.8276 -8.4055 16.3892 -0.2988 -3.5146 9.7149 -2.7743 1.8062 11.1094 -1.6272 1.9961 1.9323 -0.4254 1.0173 -4.2427 -12.7298 -7.8712 -19.1226 10.4701 -10.1105 24.1676 4.3866 -4.4244 12.4000 0.0000 -0.0000 0.0000 -86.2917 6.7106 21.1869 17.2675 -27.2091 -4.2089 -0.0000 -0.0000 7.1486 18.9751 23.1998 7.7139 -7.1250 0.0000 -0.0000 -10.6887 54.0437 -2.3971 0.0000 -0.0000 0.0000 91.1437 -0.7973 21.5096 -15.4114 24.7161 -3.3961 0.0000 0.0000 6.4277 -16.8768 10.1271 -3.0535 7.1250 -0.0000 -0.0000 7.1956 -19.4504 4.4237
0.00 0.00 0.00 4.7257 7.5964 -2.3630 0.0000 0.0000 0.0000 -28.2764 -1.0749 1.1022 0.2329 3.1059 8.5738 -0.5850 -14.9791 -1.6348 0.0476 -1.4073 -3.8703 0.0000 0.0000 0.0000 15.3232 -0.4155 -17.1898 -12.5198 -18.6019 67.6274 0.0442 -4.6112 1.2091 -0.1507 -2.5015 6.8939 -4.2319 0.3645 11.4967 -0.9209 -0.0667 2.1223 1.4334 0.0198 -4.2200 -13.4474 -7.5267 -19.6720 10.4160 -9.3616 24.9673 4.6402 -4.1515 12.7611 0.0000 -0.0000 0.0000 -86.3414 2.7352 23.5424 18.9885 -29.4044 -5.0252 -0.0000 -0.0000 7.6766 20.4216 28.5391 10.0864 -7.1250 0.0000 -0.0000 -11.8411 59.7158 -4.2904 0.0000 -0.0000 0.0000 90.5090 -2.1588 19.4576 -16.5883 26.3118 -3.9031 0.0000 0.0000 5.2725 -15.5411 8.5465 -2.3666 7.1250 -0.0000 -0.0000 8.1778 -21.1512 4.7235
0.00 0.00 0.00 5.6767 7.1936 -2.1077 0.0000 0.0000 0.0000 -29.6549 0.2595 3.3859 0.6254 5.0605 14.0812 -0.2043 -14.1709 -7.3275 0.0028 -0.3387 -0.9307 0.0000 0.0000 0.0000 13.8015 3.6244 -26.3301 -8.0441 -16.1516 52.7213 -0.2215 1.4807 -8.4941 -0.0195 -0.9009 2.4762 -5.6619 0.0305 11.2691 -0.8833 -0.6723 1.9496 2.3651 -0.2577 -4.2225 -13.0177 -7.2929 -19.8583 10.4950 -9.0616 23.7234 4.6145 -3.9620 12.2402 0.0000 -0.0000 0.0000 -85.2395 -1.5305 29.5749 21.9531 -32.9240 -6.5603 -0.0000 -0.0000 4.7993 20.1922 23.7142 8.4136 -7.1250 0.0000 -0.0000 -9.6604 54.8009 -2.3419 0.0000 -0.0000 0.0000 90.2560 -3.2162 19.0696 -16.7886 26.5782 -3.9923 0.0000 0.0000 5.4136 -15.6875 9.2256 -2.5781 7.1250 -0.0000 -0.0000 8.0562 -20.4474 4.7810
0.00 0.00 0.00 5.6433 7.0640 -0.6467 0.0000 0.0000 0.0000 -29.0520 3.0843 14.5955 0.0085 0.5955 1.6365 -0.2593 -11.8139 -3.8681 0.0398 -1.2880 -3.5416 0.0000 0.0000 0.0000 13.8799 6.8710 -26.4771 -1.5835 -7.9386 22.5278 -0.0634 -2.0797 -5.9981 -0.0131 0.7385 -2.0295 -5.9531 -0.2733 10.5107 -0.7580 -1.0646 1.5902 2.7074 -0.4427 -4.1387 -13.0343 -7.3582 -21.1102 10.9868 -9.1257 23.6295 4.7779 -3.8924 12.4917 0.0000 0.0000 0.0000 -85.0022 -4.9215 32.0436 24.5247 -35.7142 -8.0108 -0.0000 -0.0000 4.2518 19.8858 22.8532 7.9966 -7.1250 0.0000 -0.0000 -9.6218 53.8643 -2.1119 0.0000 0.0000 0.0000 90.8626 -3.2617 16.6914 -15.6036 24.9802 -3.4769 0.0000 0.0000 7.2266 -15.1566 9.6357 -2.5961 7.1250 -0.0000 -0.0000 8.4258 -20.0557 5.0800
0.00 0.00 0.00 1.7953 4.7527 -0.4854 0.0000 0.0000 0.0000 -24.6014 -1.3382 13.3657 2.0216 8.9109 25.5170 0.3833 -6.5695 15.9256 0.1601 -2.5783 -7.1068 0.0000 0.0000 0.0000 21.9153 4.7620 -18.6271 -1.5856 -7.9435 22.5425 0.0233 3.7009 -1.3391 -0.3880 -3.9997 11.0758 -2.8807 -0.6571 9.5293 0.8594 -1.1368 0.8261 2.6667 -0.5007 -4.4112 -11.8770 -6.6902 -22.9203 9.3513 -7.9859 25.1508 4.1743 -3.4393 13.1511 0.0000 -0.0000 0.0000 -87.1147 0.1061 27.5499 19.5852 -30.1393 -5.3215 -0.0000 -0.0000 5.6887 19.7065 20.8606 7.2686 -7.1250 0.0000 -0.0000 -9.0595 51.7943 -1.5261 0.0000 -0.0000 0.0000 91.1387 -3.7985 9.7708 -12.6025 20.7021 -2.3109 0.0000 0.0000 11.2774 -14.2130 8.7750 -2.2128 7.1250 -0.0000 -0.0000 9.1248 -20.9804 5.3194
0.00 0.00 0.00 -0.3597 5.0846 -0.9228 0.0000 0.0000 0.0000 -21.5260 -3.9771 5.3229 4.8817 13.2493 40.3091 1.3798 -8.2412 26.5479 0.4155 4.1376 11.4641 0.0000 0.0000 0.0000 24.9306 1.8619 -14.1979 -1.1972 -6.9425 19.5452 0.0410 5.4031 -2.3326 -0.1298 -2.3220 6.3964 -0.5528 -0.7443 9.9580 1.3826 -0.9785 0.6394 1.8895 -0.4561 -4.8861 -12.0774 -6.7960 -22.7279 9.6087 -8.1825 25.3042 4.2803 -3.5172 13.2258 -0.0000 -0.0000 0.0000 -86.5410 1.3385 28.9568 17.6911 -27.7598 -4.4044 -0.0000 -0.0000 7.7016 16.9842 26.0505 7.6397 -7.1250 0.0000 -0.0000 -14.0920 56.4924 -4.0264 -0.0000 -0.0000 0.0000 90.7689 -4.4186 11.3661 -13.0057 21.2956 -2.4554 0.0000 0.0000 11.1507 -14.9847 10.6011 -2.8191 7.1250 -0.0000 -0.0000 8.5282 -19.0793 5.3312
0.00 0.00 0.00 -1.7224 3.9269 -1.7876 0.0000 0.0000 0.0000 -18.5354 -5.1720 -6.0618 8.9249 16.7592 55.8301 0.1098 -6.7758 11.9743 0.0234 -0.9871 -2.7133 0.0000 0.0000 0.0000 27.1031 0.4891 -7.5533 -0.8814 -5.9848 16.7403 -0.0269 5.7173 -4.7469 -0.2383 -3.1416 8.6732 0.9737 -0.0083 10.8188 1.5127 0.1880 1.0342 1.0022 0.0881 -4.9906 -12.1912 -7.1291 -22.4062 9.7525 -8.6594 24.7539 4.2507 -3.7251 13.0155 0.0000 -0.0000 0.0000 -86.7240 2.1620 26.2279 16.5624 -26.2772 -3.8916 -0.0000 -0.0000 11.9253 16.7350 26.8979 7.7463 -7.1250 0.0000 -0.0000 -14.8229 57.2708 -4.5224 0.0000 -0.0000 0.0000 90.0090 -3.1016 14.0663 -13.9158 22.6142 -2.7956 0.0000 0.0000 9.6554 -15.0889 10.4228 -2.7924 7.1250 -0.0000 -0.0000 8.4578 -19.2552 5.2527
0.00 0.00 0.00 -3.1971 1.5738 -2.1224 0.0000 0.0000 0.0000 -14.6673 -7.7381 -19.8453 8.0115 16.1277 52.6042 0.0459 -2.5282 -3.9411 0.1992 -2.8738 -7.9276 0.0000 0.0000 0.0000 29.1440 0.3534 -1.8582 -1.2520 -7.0938 19.9937 -0.5032 6.4429 -12.7405 -0.0722 -1.7334 4.7694 3.5415 1.1997 11.4442 1.3233 2.1082 1.3068 -0.9366 0.9812 -4.9708 -13.4766 -7.4792 -22.3597 11.6785 -9.3516 25.2766 5.1354 -3.9073 13.5172 -0.0000 0.0000 0.0000 -87.1416 4.6667 22.7657 16.6481 -26.3916 -3.9297 -0.0000 -0.0000 7.2742 20.2068 25.0326 8.8522 -7.1250 0.0000 -0.0000 -10.2261 56.1432 -2.8158 -0.0000 0.0000 0.0000 88.6506 -0.0221 17.4300 -16.2848 25.9052 -3.7695 0.0000 0.0000 5.3622 -15.6586 8.9904 -2.5082 7.1250 -0.0000 -0.0000 8.0821 -20.6902 4.7521
0.00 0.00 0.00 -3.3514 0.9587 -1.5731 0.0000 0.0000 0.0000 -13.1764 -9.6531 -22.3282 4.4545 12.7418 38.4095 0.0665 2.2986 -6.2820 0.1034 -2.0733 -5.7083 0.0000 0.0000 0.0000 29.4790 0.6430 2.7464 -1.0111 -6.3979 17.9433 -0.6325 5.2006 -14.1615 -0.0845 -1.8749 5.1600 3.8719 1.6447 11.2313 1.2086 2.7261 1.1941 -1.3290 1.2776 -4.9246 -13.4131 -7.6223 -22.4556 11.7135 -9.5741 25.2040 5.0896 -3.9892 13.5412 -0.0000 0.0000 0.0000 -87.2268 5.9526 22.8827 16.5975 -26.3241 -3.9072 -0.0000 -0.0000 8.2555 20.8968 24.6363 9.0431 -7.1250 0.0000 -0.0000 -9.3245 55.8827 -2.5052 -0.0000 0.0000 0.0000 87.6941 1.2002 19.1340 -17.5323 27.5541 -4.3307 0.0000 0.0000 4.5486 -15.7340 8.5419 -2.3962 7.1250 -0.0000 -0.0000 8.0390 -21.1466 4.6426
0.00 0.00 0.00 -3.4891 1.0844 -0.7901 0.0000 0.0000 0.0000 -11.4912 -11.8728 -21.8846 1.5880 7.9493 22.5601 0.0254 2.1655 -4.5778 0.1838 -2.7616 -7.6158 0.0000 0.0000 0.0000 29.7754 0.4012 6.3511 -0.8363 -5.8336 16.3023 -0.7416 3.8120 -15.4267 -0.0273 -1.0668 2.9325 3.8981 1.7589 10.5952 1.1841 2.8543 0.9997 -1.3674 1.3418 -4.7654 -13.6131 -7.7503 -22.5240 12.0434 -9.7714 25.0972 5.2149 -4.0502 13.5781 -0.0000 -0.0000 0.0000 -87.5232 7.0178 22.6481 16.5975 -26.3241 -3.9072 -0.0000 -0.0000 8.6704 18.5306 27.1043 8.6829 -7.1250 0.0000 -0.0000 -13.0514 57.8613 -4.1551 -0.0000 -0.0000 0.0000 87.2956 2.2753 19.5562 -18.0287 28.1939 -4.5628 0.0000 0.0000 3.7603 -15.5401 7.8891 -2.1858 7.1250 -0.0000 -0.0000 8.1977 -21.8256 4.6086
0.00 0.00 0.00 -37.0976 -88.8329 38.5519 0.0000 0.0000 0.0000 -16.4224 -10.4784 -15.9961 1.3454 7.3435 20.7370 -0.1616 -8.7201 -2.2016 0.4910 -4.4927 -12.4670 0.0000 0.0000 0.0000 25.3674 2.0734 10.9247 -2.1662 -9.2041 26.4359 1.5015 21.6464 13.6695 -1.5503 -7.8588 22.2860 2.2716 0.4998 9.7655 1.2163 0.9406 0.6034 -0.1400 0.4125 -4.8340 -11.6558 -6.3391 -20.0010 8.8986 -8.3207 26.9600 3.9536 -3.8428 13.2965 0.0000 0.0000 0.0000 -81.4049 -0.1780 16.2737 20.2118 -30.8967 -5.6397 -0.0000 -0.0000 4.3159 19.4761 24.5726 8.3662 -7.1250 0.0000 -0.0000 -10.7761 55.5286 -2.8083 0.0000 0.0000 0.0000 85.9467 -5.3559 1.2905 -14.4413 23.3621 -3.0009 0.0000 0.0000 6.6030 -17.5699 7.3548 -2.3212 7.1250 -0.0000 -0.0000 6.7362 -22.2868 3.7033
0.00 0.00 0.00 -53.9546 -94.7331 54.1116 0.0000 0.0000 0.0000 -23.0012 -3.6547 -9.4371 0.7424 5.5042 15.3525 -0.3441 -11.4702 -1.1104 0.0341 -1.1915 -3.2760 0.0000 0.0000 0.0000 17.3845 4.3620 2.2744 -5.9977 -14.4261 44.9726 -0.6581 16.8304 29.1147 -0.3838 -3.9787 11.0168 -2.3371 0.5598 10.2644 -0.3842 0.4206 0.5705 0.8555 0.2440 -5.1791 -11.3964 -5.4542 -20.3982 9.0218 -7.1607 27.3129 4.1820 -3.2975 13.3645 -0.0000 -0.0000 0.0000 -81.4024 0.5316 17.5040 21.3609 -32.2472 -6.2414 -0.0000 -0.0000 2.4420 20.8411 25.3852 9.2690 -7.1250 0.0000 -0.0000 -9.7219 56.6337 -2.7908 -0.0000 -0.0000 0.0000 86.9189 -8.1233 -1.1384 -14.1271 22.9162 -2.8774 0.0000 0.0000 6.5836 -16.7922 7.0340 -2.1164 7.1250 -0.0000 -0.0000 7.3120 -22.6531 3.9631
